<svg xmlns="http://www.w3.org/2000/svg" viewBox="0 0 461.04 74.33"><defs><style>.cls-1,.cls-7{font-size:64.16px;}.cls-1{fill:#f0efef;font-family:Rubik-Regular, Rubik;}.cls-2{letter-spacing:-0.01em;}.cls-3{letter-spacing:-0.02em;}.cls-4,.cls-6{fill:#69cce2;}.cls-5,.cls-7,.cls-9{fill:none;}.cls-5,.cls-6,.cls-7,.cls-9{stroke:#69cce2;stroke-miterlimit:10;}.cls-5{stroke-width:1.14px;}.cls-6{stroke-width:0.22px;}.cls-7,.cls-9{stroke-dasharray:12 3;}.cls-7{font-family:Rubik-Bold, Rubik;font-weight:700;}.cls-8{letter-spacing:-0.02em;}</style></defs><title>footer-logo</title><g id="Layer_1" data-name="Layer 1"><text class="cls-1" transform="translate(0 55.04)">FIR<tspan class="cls-2" x="96.75" y="0">S</tspan><tspan class="cls-3" x="136.02" y="0">T</tspan></text><rect class="cls-4" x="500.82" y="232.64" width="13.25" height="6.63" rx="1.61" ry="1.61" transform="translate(262.7 -513.29) rotate(45)"/><rect class="cls-4" x="483.99" y="228.86" width="2.34" height="44.3" rx="0.87" ry="0.87" transform="translate(266.83 -493.12) rotate(45)"/><rect class="cls-4" x="491.22" y="236.09" width="2.34" height="44.3" rx="0.87" ry="0.87" transform="translate(274.05 -496.12) rotate(45)"/><rect class="cls-4" x="487.26" y="232.47" width="3.03" height="44.3" rx="0.99" ry="0.99" transform="translate(270.44 -494.62) rotate(45)"/><path class="cls-5" d="M465.79,278.59l9.52-2.21a.93.93,0,0,0,.45-1.57l-7.3-7.3a.93.93,0,0,0-1.57.44l-2.22,9.52A.93.93,0,0,0,465.79,278.59Z" transform="translate(-52.76 -223.58)"/><path class="cls-6" d="M465.24,278.53l3.63-.41a.36.36,0,0,0,.22-.62l-3.22-3.22a.36.36,0,0,0-.62.22l-.41,3.63A.36.36,0,0,0,465.24,278.53Z" transform="translate(-52.76 -223.58)"/></g><g id="_Layer_" data-name="&lt;Layer&gt;"><text class="cls-7" transform="translate(173.09 55.04)">DRAF<tspan class="cls-8" x="176.76" y="0">T</tspan></text><line class="cls-9" x1="381.4" y1="55.04" x2="391.84" y2="55.04"/><line class="cls-9" x1="396.28" y1="55.04" x2="406.73" y2="55.04"/></g></svg>